<svg width="297" height="389" viewBox="0 0 297 389" fill="none" xmlns="http://www.w3.org/2000/svg">
<path fill-rule="evenodd" clip-rule="evenodd" d="M7.20457 215.301C10.8247 215.656 14.4448 216.012 18.065 216.367C35.4028 217.693 52.7337 220.462 69.9388 222.124C70.3672 221.426 71.2057 221.541 71.7147 222.026C73.4315 221.875 75.3557 220.562 76.9108 221.928C76.9613 221.921 77.0118 221.913 77.0628 221.908C79.8318 216.589 81.7458 210.915 83.6034 205.234C84.7891 201.741 86.3843 198.36 89.3322 196.014C94.3631 192.519 105.89 185.431 111.798 185.729C111.896 184.67 112.389 183.579 113.198 182.874C111.414 179.829 118.548 177.843 119.052 178.196C118.729 168.023 123.51 159.189 134.051 157.164C143.495 155.194 156.927 154.863 162.006 164.741C162.564 164.678 168.271 164.649 168.824 164.711C169.682 163.622 179.111 173.935 175.246 177.526C209.794 192.822 229.438 190.997 239.001 234C240.293 238.04 240.388 242.46 241.753 246.41C246.609 257.76 250.548 269.847 251.529 282.197C253.896 282.805 254.169 286.983 251.426 287.588C250.378 287.819 249.502 288.134 248.739 288.733C249.336 298.854 246.89 321.974 245.349 321.903C242.207 331.912 228.192 334.736 218.27 331.219C219.98 334.44 218.27 336.465 218.27 338.186C182.567 339.538 143.53 338.759 107.837 340.614C103.272 340.549 98.4695 341.736 93.9662 341.053C91.2198 340.394 91.2152 336.071 94.0009 335.537L81.8287 332.891C82.1007 332.788 76.8112 329.267 72.8135 322.686C69.0923 315.325 71.6249 306.439 69.9388 298.432C56.7698 297.354 43.3831 296.893 30.3582 294.661C28.5823 299.979 20.8946 293.618 18.451 291.06C18.454 291.056 18.457 291.052 18.4601 291.048C17.2775 290.724 16.3291 289.615 16.2974 288.301C15.4681 287.115 15.294 285.444 16.0893 284.297C12.444 263.244 6.88684 241.748 4.87819 220.497C4.16812 220.34 3.49942 220.028 2.93248 219.548L2.97842 219.502C2.01787 218.431 1.83109 216.58 3.43242 215.67C4.72415 214.934 5.8027 215.162 7.20457 215.301Z" fill="#EDB48C"/>
<path fill-rule="evenodd" clip-rule="evenodd" d="M144.887 294.097L142.099 295.873L119.282 303.232L105.338 305.008L93.9296 303.232V322.771L91.6479 341.041C92.662 342.902 102.296 342.902 120.549 341.041C132.185 339.855 174.713 339.279 184.395 339.026L184.944 339.011C196.322 338.683 207.561 338.683 218.662 339.011V332.16L186.972 316.427L158.577 300.441L144.887 294.097ZM161.055 163.144L158.959 164.711L163.534 172.234L141.247 190.279V204.692L134.19 211.371L130.157 204.692L124.474 197.127L120.435 184.865L121.81 176.786L119.045 176.525C119.031 177.077 119.034 177.635 119.052 178.196C118.548 177.843 111.414 179.829 113.198 182.874C112.389 183.579 111.896 184.67 111.798 185.729C105.89 185.431 94.3631 192.519 89.3322 196.014C86.3843 198.36 84.7891 201.741 83.6034 205.234L83.3243 206.086L83.036 206.961L82.7456 207.835C81.1413 212.639 79.409 217.401 77.0628 221.908C77.0118 221.913 76.9613 221.921 76.9108 221.928C75.3557 220.562 73.4315 221.875 71.7147 222.026C71.2175 221.552 70.406 221.432 69.9693 222.076L69.9388 222.124L91.3287 226.341L105.44 275.885L117.729 265.901L124.325 266.882L141.744 273.171L162.004 278.438L208.254 291.2H214.143L248.415 282.917L251.504 281.896C250.484 269.65 246.57 257.668 241.753 246.41C240.388 242.46 240.293 238.04 239.001 234C229.438 190.997 209.794 192.822 175.246 177.526C179.111 173.935 169.682 163.622 168.824 164.711L168.77 164.706L168.653 164.7L168.502 164.694C167.154 164.655 162.507 164.685 162.006 164.741C161.716 164.176 161.398 163.644 161.055 163.144Z" fill="black"/>
<path fill-rule="evenodd" clip-rule="evenodd" d="M3.78573 216.805L4.42286 220.359C4.57428 220.408 4.72834 220.45 4.8844 220.485C5.08464 222.603 5.32015 224.724 5.58551 226.847L9.53559 248.882C10.2169 252.781 10.8637 256.688 11.5057 260.596L12.3565 264.794L12.8834 267.403C14.0209 273.053 15.1258 278.684 16.0955 284.285C15.9492 284.496 15.8356 284.724 15.753 284.965L15.8276 285.28L15.8795 285.491L15.9326 285.699C16.6976 288.642 18.0289 291.497 21.1661 292.363C23.5326 293.016 26.1291 293.075 28.5726 293.333L28.8435 293.363L71.6021 298.176C76.7687 298.757 81.9328 299.356 87.0965 299.961L91.5728 300.487C97.812 301.21 104.087 301.779 110.234 303.088C110.46 303.136 110.647 303.227 110.8 303.345C109.562 298.655 108.377 293.971 107.303 289.234C106.094 283.902 104.947 278.559 103.654 273.246C101.05 262.543 98.1298 251.91 94.9334 241.369C94.2627 239.156 93.5764 236.948 92.8751 234.745L92.383 233.205L92.0042 231.978C91.4181 230.107 90.6928 228.184 88.9742 227.152C86.9628 225.944 84.2201 225.744 81.9389 225.326L80.3941 225.036C78.0829 224.604 75.7688 224.189 73.4518 223.79C62.3588 221.88 51.2028 220.348 40.0058 219.198C28.3545 218 16.6625 217.222 4.95639 216.842L3.78573 216.805ZM109.914 290.277L109.805 290.286L111.402 303.065C111.657 302.886 111.982 302.776 112.377 302.777C117.616 302.793 122.638 301.117 127.496 299.274L128.236 298.992L130.298 298.199C132.394 297.395 134.502 296.609 136.649 295.957L137.516 295.695L137.958 295.564C139.583 295.089 141.293 294.658 142.984 294.55L143.214 294.538L142.722 294.279C142.65 294.241 142.587 294.199 142.53 294.153C141.6 294.222 140.667 294.203 139.686 294.026C137.84 293.694 136.044 293.051 134.396 292.156L133.66 291.756L133.358 291.596L133.159 291.493L132.961 291.393C131.546 290.687 130.192 290.244 128.404 290.62C126.375 291.048 124.597 292.143 122.768 293.068L122.443 293.229L122.225 293.335L122.002 293.44L121.777 293.543C119.303 294.657 115.367 295.859 114.418 292.493C114.037 291.14 114.335 289.874 114.997 288.763C113.764 288.657 111.563 290.111 109.914 290.277ZM48.3395 248.172L48.3097 248.326C47.9599 250.21 48.8371 252.013 50.1645 253.328C51.2533 254.406 53.1803 255.005 53.7262 256.555C54.037 257.438 53.7064 258.274 53.068 258.858L53.2151 258.93L53.3588 259.004L53.4991 259.078L53.636 259.153L53.7692 259.228C55.9378 260.475 57.7039 262.503 55.748 264.953C53.5292 267.731 48.8931 267.822 45.6266 267.604L45.4066 267.589C42.2393 267.351 38.4874 266.286 36.7699 263.359C35.9822 262.016 36.0689 260.392 37.1669 259.243C37.8294 258.55 39.0111 257.838 40.0946 257.753C40.0472 257.142 40.12 256.552 40.3347 256.054C40.7991 254.977 42.0351 254.252 43.2271 254.226C43.1306 251.94 44.9601 249.683 46.3071 247.856L46.4447 247.668L46.5782 247.484C47.1962 246.623 48.5187 247.105 48.3395 248.172ZM46.532 250.606L45.3047 255.207L45.3258 255.245C45.7581 256.067 44.6248 256.999 43.9527 256.309L43.885 256.236C43.0872 255.411 41.8627 256.52 41.8474 257.398C41.8256 258.633 42.6293 259.588 43.5867 260.22L43.6538 260.263L43.8303 260.373C44.6161 260.893 44.0212 261.979 43.1574 261.847C42.0885 261.683 41.2126 260.835 40.6726 259.775C40.0956 259.941 39.439 259.921 38.8313 260.261C37.3 261.118 38.1807 262.618 39.1779 263.524L39.2183 263.561L39.2996 263.631C41.129 265.193 43.6198 265.735 45.9678 265.852L46.1031 265.858C48.4747 265.959 51.5647 265.993 53.5974 264.597C54.8625 263.728 55.2288 262.496 54.1582 261.329C53.5528 260.67 52.9415 260.004 52.3123 259.361C51.3705 259.811 50.5293 259.629 49.5661 259.203C49.4427 259.148 49.5111 258.959 49.6321 258.959C50.1634 258.959 52.1133 257.971 52.2081 257.34C52.2957 256.757 51.2171 256.264 50.6926 255.982L50.6165 255.941L50.5506 255.902C50.002 255.57 49.4855 255.182 49.0135 254.747C47.8154 253.644 46.9452 252.259 46.5652 250.744L46.532 250.606Z" fill="white"/>
<path fill-rule="evenodd" clip-rule="evenodd" d="M161.348 162.447C160.272 159.741 156.636 160.793 157.041 163.636C157.284 165.338 158.216 167.137 159.053 168.629C159.734 169.844 160.511 171.029 161.565 171.94C159.689 173.692 157.742 175.38 155.745 176.982C153.566 178.731 151.275 180.343 148.907 181.824C146.831 183.123 144.66 184.274 142.703 185.757C140.883 187.135 139.225 188.792 138.381 190.956C137.482 193.26 137.873 195.64 138.535 197.942L138.611 198.203C139.287 200.484 140.457 203.234 138.834 205.383C138.008 206.477 136.807 207.252 135.77 208.127C134.848 208.904 133.983 209.75 133.189 210.658C131.459 212.638 130.052 214.866 129.163 217.348L129.084 217.573C128.323 219.771 127.767 222.462 128.795 224.62C129.09 225.238 130.042 225.037 130.207 224.435C130.581 223.071 130.561 221.642 130.875 220.259C131.201 218.82 131.743 217.454 132.452 216.162C133.823 213.663 135.68 211.527 137.873 209.722L138.53 209.188C140.241 207.782 141.814 206.291 142.161 203.964C142.533 201.475 141.536 199.104 140.896 196.748C140.449 195.107 140.303 193.533 140.786 192.049C141.375 193.012 142.18 193.926 142.816 194.742C144.082 196.366 145.361 197.98 146.637 199.598C147.944 201.256 149.22 202.941 150.434 204.669C150.978 205.442 151.515 206.22 152.051 206.998C152.454 207.584 153.016 208.168 153.455 208.765C153.348 209.084 153.356 209.452 153.549 209.714C155.878 212.863 159.191 206.292 160.055 204.632C161.814 201.251 163.124 197.66 164.889 194.28C166.718 190.776 168.801 187.366 171.123 184.167C172.527 182.232 174.101 180.415 175.385 178.418C178.411 181.165 182.394 183.006 186.052 184.676C190.071 186.51 194.246 188.008 198.366 189.6L199.584 190.073C206.683 192.846 213.957 195.893 219.858 200.819C226.792 206.608 230.895 214.676 233.949 223.031C237.465 232.65 240.374 242.528 243.085 252.399C244.473 257.45 245.789 262.524 247.027 267.614C248.117 272.098 249.021 276.627 250.284 281.065C247.723 280.975 244.803 281.967 242.617 282.253C232.654 283.559 222.825 285.639 213.418 289.242C212.257 289.687 211.92 290.848 212.173 291.79C211.503 291.601 210.834 291.409 210.164 291.22C210.898 290.095 210.547 288.082 210.49 286.834L210.486 286.748C210.427 285.085 210.247 283.421 210.13 281.761C209.907 278.597 209.617 275.456 209.232 272.31L209.134 271.524C208.697 268.101 208.375 264.658 207.898 261.242L207.842 260.85C208.07 259.976 208.336 259.113 208.615 258.253C209.359 255.963 210.409 253.807 211.329 251.589C211.438 251.328 211.066 251.178 210.892 251.335C209.334 252.738 208.097 254.518 207.102 256.379C207.085 256.291 207.07 256.203 207.052 256.116L206.938 255.557C206.659 254.193 206.318 252.759 205.483 251.654C205.394 251.536 205.218 251.511 205.134 251.654C204.334 253.008 204.245 254.723 204.122 256.264C203.982 258.007 203.965 259.773 203.989 261.521C204.037 264.937 204.278 268.363 204.47 271.773C204.658 275.125 205.027 278.434 205.503 281.753L205.593 282.375C205.826 283.955 206.016 285.554 206.323 287.123L206.41 287.55C206.574 288.328 206.675 289.425 207.001 290.336C198.6 287.991 190.186 285.699 181.756 283.447C175.663 281.82 169.564 280.217 163.467 278.603C163.145 278.023 162.745 277.481 162.245 276.996C160.598 275.4 158.415 274.688 156.413 275.916C156.25 276.017 156.237 276.272 156.413 276.369C156.797 276.578 157.181 276.794 157.558 277.018L153.898 276.026C151.161 275.283 148.392 274.356 145.592 273.838C140.433 271.291 134.885 269.446 129.451 267.624L128.811 267.407C126.029 266.457 123.151 265.395 120.276 264.868C118.172 264.483 115.701 264.948 114.855 267.106C113.784 267.812 112.776 268.643 111.803 269.46C111.1 270.05 110.426 270.678 109.74 271.289L109.614 271.4C109.053 271.886 108.609 272.212 108.472 272.987C108.401 273.387 108.655 273.928 109.148 273.875C110.656 273.713 111.883 271.963 112.906 270.918C113.697 270.11 114.494 269.275 115.215 268.387C115.636 268.616 116.212 268.575 116.48 268.067C117.868 265.436 121.671 267.259 123.776 267.883L126.79 268.776C128.297 269.223 129.804 269.673 131.308 270.13C135.441 271.386 139.554 272.792 143.725 273.946C143.352 274.357 143.403 275.087 144.112 275.365C147.377 276.647 150.959 277.31 154.351 278.19C156.492 278.746 158.632 279.305 160.772 279.868C161.139 280.462 161.403 281.135 161.514 281.919C161.922 284.799 161.134 288.122 160.367 290.908L160.252 291.323C159.621 293.563 158.694 296.309 156.763 297.723C156.292 298.068 155.692 298.308 155.087 298.362C151.308 296.415 147.529 294.468 143.747 292.525C143.047 292.165 142.4 292.652 142.242 293.232C140.909 293.013 139.579 292.668 138.367 292.256C136.332 291.564 134.742 290.244 132.833 289.332C129.141 287.566 125.37 289.735 122.063 291.384L121.301 291.759C119.819 292.479 116.734 293.862 116.022 291.893C115.334 289.987 117.51 287.951 118.915 287.094C120.59 286.072 122.54 285.524 124.433 285.069C125.513 284.808 126.607 284.596 127.708 284.441C128.956 284.265 130.246 284.291 131.447 283.886C132.045 283.685 132.137 282.736 131.447 282.579C129.597 282.157 127.389 282.617 125.458 283.087L124.449 283.336C122.504 283.814 120.54 284.413 118.768 285.366C117.479 286.06 116.12 287.113 115.231 288.402C114.46 287.684 113.5 287.709 112.5 287.975L111.957 288.126C111.06 288.374 110.334 288.546 109.461 288.373C109.345 287.738 109.227 287.103 109.1 286.467C107.857 280.222 106.494 274 104.99 267.811C102.395 257.136 99.3931 246.579 96.0085 236.129L95.6688 235.085C94.8882 232.695 94.26 230.091 93.0015 227.895C91.8112 225.819 89.9042 224.623 87.6385 223.989C85.0673 223.271 82.3655 222.895 79.7426 222.409C79.1575 222.301 78.5708 222.198 77.9852 222.092C78.4801 221.198 78.8495 220.182 79.1823 219.403L79.2406 219.268C79.9555 217.637 80.5976 215.976 81.2177 214.307L81.6816 213.052C82.8012 210.029 83.957 207.057 85.5312 204.23C87.1883 201.255 89.3865 198.823 92.1269 196.81C97.714 192.705 104.448 190.611 109.867 186.225C110.089 186.045 109.805 185.738 109.579 185.851C105.92 187.692 101.97 188.943 98.1642 190.441L97.4134 190.737C94.4053 191.931 91.3504 193.23 88.7467 195.163C85.8438 197.318 83.5576 199.994 81.8392 203.176C80.1457 206.313 79.0624 209.824 77.8676 213.175L77.548 214.067C77.066 215.406 76.5683 216.741 75.9978 218.043C75.5451 219.078 74.7001 220.258 74.316 221.44C73.2651 221.258 72.2145 221.075 71.1627 220.899C48.3795 217.091 25.3418 214.854 2.25285 214.2C1.34955 214.174 0.882317 215.037 1.01542 215.826C3.23119 228.94 5.20029 242.099 7.36079 255.223C8.30389 260.951 9.26576 266.674 10.2502 272.395C10.7489 275.293 11.3254 278.181 11.7977 281.083C12.179 283.427 12.4558 285.79 13.1104 288.08C13.6976 290.133 14.5986 292.113 16.0784 293.679C17.6735 295.367 19.8999 296.185 22.1411 296.571C27.8303 297.551 33.6659 297.951 39.4013 298.604L69.9372 302.081C69.4909 306.141 69.4576 310.137 69.6623 314.244L69.779 316.486C69.8744 318.29 69.9884 320.096 70.2472 321.88C70.5717 324.119 71.5949 326.015 73.1021 327.687C74.4861 329.223 76.1674 330.533 77.8029 331.789C79.5005 333.093 81.2546 334.351 83.2506 335.157L83.5096 335.26C85.2607 335.944 88.5454 337.004 90.9388 336.617C90.626 338.186 90.0206 339.873 90.5573 341.425C90.8063 342.146 91.7481 342.505 92.3251 341.892C93.4682 340.676 93.5575 339.071 93.8282 337.485C94.1099 335.834 94.3528 334.178 94.5685 332.518C94.9858 329.308 95.3106 326.068 95.4097 322.831C95.5116 319.506 95.4723 316.177 95.2933 312.856C95.2013 311.15 95.0872 309.446 94.871 307.751C94.7787 307.029 94.6844 306.305 94.5766 305.584C94.5373 305.322 94.4937 305.06 94.4468 304.799L97.1876 305.108C101.39 305.578 105.595 306.002 109.827 306.068C110.328 306.075 110.714 305.847 110.966 305.514C111.234 305.952 111.702 306.265 112.371 306.263C118.282 306.241 123.786 304.306 129.161 302.027C131.871 300.877 134.538 299.633 137.252 298.493C139.785 297.429 142.493 296.67 144.965 295.472L151.46 298.882C151.508 299.05 151.569 299.208 151.634 299.341C152.056 300.205 152.89 300.674 153.742 301.027C154.559 301.366 155.406 301.472 156.23 301.386C161.156 303.97 166.084 306.551 171.014 309.126L175.945 311.699C185.771 316.82 195.558 322.024 205.445 327.024L206.173 327.391C209.588 329.105 213.255 330.843 217.045 332.139C217.113 333.099 217.07 334.033 216.99 335.049L216.97 335.271C216.857 336.472 216.615 337.976 217.577 338.831C218.078 339.276 218.973 339.278 219.313 338.607C219.931 337.392 219.376 335.475 219.18 334.154C219.111 333.685 219.026 333.202 218.901 332.733C223.246 334.028 227.722 334.656 232.144 333.929C236.449 333.221 239.783 330.507 242.47 327.187C245.307 323.684 247.323 319.6 248.404 315.223C249.635 310.243 249.716 305.099 249.687 299.998C249.656 294.565 249.455 289.106 248.795 283.71C249.518 283.539 250.32 283.392 251.051 283.443C251.413 284.023 252.116 284.267 252.75 284.192C254.13 285.715 250.63 287.272 249.511 287.661C249.123 287.797 249.165 288.428 249.613 288.409L249.895 288.396C251.623 288.304 253.409 288.008 254.425 286.401C255.239 285.112 254.995 283.586 254.024 282.535C253.383 276.467 251.85 270.558 250.423 264.64C249.023 258.83 247.467 253.058 245.816 247.314L245.077 244.744C242.478 235.739 239.763 226.661 236.179 218.013C234.389 213.695 232.328 209.457 229.533 205.692C226.928 202.183 223.853 199.179 220.318 196.614C213.727 191.832 205.994 188.943 198.396 186.19L198.056 186.067C194.119 184.641 190.191 183.199 186.298 181.654C182.856 180.288 179.558 178.556 176.131 177.17C176.243 176.968 176.35 176.763 176.454 176.556L176.517 176.61C176.528 176.618 176.539 176.627 176.55 176.634C176.895 176.873 177.402 176.756 177.686 176.488C178.488 175.731 178.216 174.89 177.681 174.105L177.612 174.005C176.957 173.087 176.373 172.117 175.769 171.166L175.391 170.571C174.377 168.982 173.311 167.382 171.959 166.069C171.333 165.461 170.647 165.006 169.921 164.666C169.983 164.535 169.438 164.266 169.284 164.401C166.983 163.558 164.335 163.735 161.826 163.967M71.4147 302.249L74.6141 302.613C78.134 303.014 81.6553 303.402 85.177 303.786L92.8263 304.618C92.8458 305.054 92.8988 305.481 92.9085 305.811C92.9584 307.51 92.9957 309.21 93.0309 310.91C93.1016 314.317 93.0241 317.728 92.7999 321.129C92.5827 324.424 92.2966 327.72 91.8521 330.993L91.761 331.647L91.7083 331.991C91.3455 332.026 90.989 332.199 90.6927 332.553C90.0457 333.326 87.7029 332.575 86.7879 332.249C85.2833 331.713 83.8664 330.808 82.559 329.9C81.2822 329.013 80.1325 327.979 79.0277 326.89L78.1237 325.996C77.2246 325.101 76.3244 324.148 75.7735 323.024C75.0263 321.498 74.9297 319.625 74.7107 317.964C74.441 315.92 74.1197 313.877 73.7803 311.843M164.293 280.797L164.625 280.884C176.68 284.09 188.718 287.391 200.81 290.455C206.794 291.972 212.806 293.379 218.798 294.867L219.768 295.109C224.495 296.305 229.278 297.744 232.897 301.176C233.031 301.302 233.225 301.108 233.099 300.974C229.198 296.817 223.65 295.058 218.323 293.532C217.339 293.25 216.353 292.975 215.368 292.695C222.612 290.11 229.971 287.861 237.5 286.257C239.439 285.844 241.4 285.54 243.337 285.126C244.688 284.836 246.008 284.418 247.344 284.071L248.396 283.807L248.41 287.133C248.427 291.844 248.419 296.551 248.179 301.261L248.133 302.133C247.853 307.375 247.416 312.726 245.557 317.668C244.047 321.685 241.64 325.468 238.492 328.394C236.899 329.874 235.187 331.026 233.07 331.595C231.104 332.123 229.045 332.185 227.024 332.044C217.332 331.368 208.705 326.098 200.286 321.735C186.516 314.599 172.744 307.466 158.959 300.357C159.332 300.102 159.683 299.808 160.002 299.478C161.85 297.567 162.825 294.952 163.466 292.419C164.147 289.722 164.555 286.832 164.602 284.049M146.754 303.112C146.632 303.046 146.491 303.128 146.486 303.266C146.443 304.32 147.025 305.359 147.46 306.308L147.506 306.41C148.034 307.586 148.612 308.746 149.21 309.888C150.405 312.169 151.648 314.426 152.944 316.651C155.551 321.128 158.449 325.416 161.873 329.313C162.647 330.194 163.919 329.065 163.423 328.117C161.029 323.547 158.239 319.232 155.367 314.954C153.93 312.813 152.493 310.669 151.041 308.537C150.435 307.647 149.822 306.761 149.192 305.888L148.812 305.366M3.77954 216.817C15.8768 217.183 27.9599 217.973 39.9996 219.21C51.1966 220.361 62.3526 221.893 73.4456 223.803C75.7626 224.201 78.0768 224.617 80.3879 225.048L81.7743 225.309C84.0859 225.748 86.9099 225.929 88.968 227.165C91.1379 228.468 91.7242 231.191 92.4463 233.437C93.2951 236.078 94.1223 238.726 94.9272 241.381C98.1236 251.923 101.043 262.556 103.648 273.259C104.941 278.572 106.088 283.914 107.297 289.246C108.371 293.984 109.556 298.668 110.794 303.358C110.641 303.239 110.454 303.149 110.228 303.101C104.081 301.792 97.8058 301.222 91.5666 300.499L90.9629 300.429C84.5085 299.669 78.0541 298.915 71.5959 298.188L28.8373 293.375C26.3155 293.092 23.614 293.053 21.1599 292.376C16.9875 291.224 16.0096 286.555 15.3095 282.836L15.2884 282.724C13.1778 271.49 11.4977 260.158 9.52939 248.895M109.799 290.298C111.459 290.189 113.731 288.667 114.99 288.776C114.329 289.886 114.031 291.153 114.412 292.505C115.472 296.269 120.268 294.322 122.578 293.172C124.472 292.229 126.301 291.075 128.398 290.633C130.774 290.133 132.383 291.079 134.39 292.168C136.038 293.063 137.833 293.706 139.68 294.039C140.661 294.216 141.594 294.235 142.524 294.166C142.58 294.211 142.643 294.254 142.715 294.292L143.208 294.55C140.982 294.652 138.714 295.34 136.642 295.969C134.496 296.621 132.388 297.408 130.292 298.211L128.229 299.005C123.142 300.955 117.877 302.806 112.371 302.79C111.976 302.789 111.651 302.899 111.396 303.077M119.087 278.505C117.447 278.305 115.933 278.52 114.622 279.588C113.042 280.877 111.98 283.014 109.708 283.154C109.046 283.195 108.892 284.128 109.55 284.322C111.242 284.824 112.611 283.908 113.763 282.719L114.538 281.909C115.676 280.728 116.727 279.816 118.659 279.887C120.728 279.962 122.801 280.441 124.857 280.684C127.185 280.96 129.514 281.195 131.85 281.397C131.958 281.407 131.977 281.236 131.875 281.211L129.259 280.559M120.67 271.795L120.399 271.768C118.018 271.536 115.84 271.527 113.713 272.809L113.305 273.056C111.387 274.223 109.3 275.597 108.101 277.486C107.905 277.795 108.229 278.159 108.557 278.08C110.862 277.527 112.547 275.834 114.485 274.567C116.66 273.146 118.907 273.38 121.388 273.601C123.789 273.815 126.189 274.109 128.567 274.51C130.801 274.886 133.042 275.479 135.299 275.669L135.299 275.664C135.557 275.664 135.704 275.276 135.441 275.145C133.15 274 130.498 273.458 128.006 272.935M48.3238 248.235C48.554 247.133 47.1997 246.622 46.5719 247.496L46.4385 247.681C45.0823 249.54 43.1211 251.874 43.2209 254.239C42.0288 254.265 40.7929 254.99 40.3285 256.067C40.1137 256.565 40.041 257.155 40.0884 257.766C39.0048 257.85 37.8232 258.562 37.1607 259.255C36.0627 260.405 35.976 262.029 36.7637 263.372C38.4812 266.299 42.2331 267.364 45.4004 267.601L45.5132 267.609C48.7847 267.836 53.4987 267.775 55.7418 264.965C57.9056 262.256 55.5142 260.062 53.0618 258.87C53.7002 258.287 54.0308 257.45 53.72 256.568C53.1741 255.017 51.2471 254.418 50.1583 253.34C48.8309 252.026 47.9537 250.223 48.3035 248.338M46.5258 250.618C46.8866 252.187 47.7729 253.623 49.0073 254.76C49.4793 255.195 49.9958 255.582 50.5444 255.915L50.6103 255.953C51.0972 256.227 52.294 256.739 52.2019 257.353C52.1071 257.984 50.1572 258.971 49.6259 258.972C49.5049 258.972 49.4365 259.161 49.56 259.216C50.5231 259.641 51.3643 259.824 52.3061 259.374C52.9353 260.017 53.5466 260.682 54.152 261.342C55.2226 262.509 54.8563 263.741 53.5912 264.61C51.5585 266.006 48.4685 265.972 46.0969 265.87C43.7097 265.768 41.158 265.236 39.2934 263.644L39.2121 263.573C38.1987 262.671 37.2731 261.142 38.8251 260.274C39.4328 259.933 40.0894 259.953 40.6664 259.788C41.2064 260.847 42.0823 261.696 43.1512 261.86C44.015 261.992 44.6099 260.905 43.8241 260.385L43.6476 260.276C42.6609 259.645 41.8189 258.674 41.8412 257.41C41.8565 256.532 43.081 255.424 43.8788 256.249L43.9153 256.288C44.5829 257.041 45.7587 256.092 45.3196 255.258L45.2985 255.22M202.218 206.978C202.221 206.79 201.956 206.719 201.864 206.882C200.314 209.611 199.504 212.956 198.679 215.962C197.814 219.111 197.116 222.292 196.489 225.496C195.219 231.985 194.543 238.436 194.497 245.05C194.49 245.994 196.027 246.245 196.178 245.277C197.176 238.845 198.132 232.405 199.138 225.974C199.644 222.74 200.233 219.517 200.796 216.293M186.878 211.731C186.992 211.355 186.445 211.229 186.305 211.573C183.195 219.213 182.142 227.872 184.139 235.932C184.444 237.165 186.248 236.631 186.018 235.413M146.766 204.942C146.782 204.66 146.417 204.616 146.279 204.81C144.806 206.888 144.194 209.671 141.609 210.745C140.319 211.281 138.866 211.187 137.726 212.093C136.964 212.699 136.379 213.655 136.951 214.572C137.136 214.869 137.652 215.017 137.903 214.695C138.268 214.226 138.462 213.664 138.959 213.312C139.659 212.816 140.604 212.786 141.407 212.552C142.446 212.251 143.361 211.723 144.111 210.94M122.15 170.284C121.998 170.206 121.852 170.256 121.755 170.387C121.617 170.575 121.634 170.757 121.803 170.885C121.577 171.349 121.309 172.512 121.27 172.681C121.115 173.367 120.95 174.05 120.777 174.731C120.429 176.106 120.124 177.491 119.775 178.866C119.406 180.324 118.965 181.766 118.475 183.187C118.444 183.279 118.409 183.373 118.372 183.468L118.317 183.612L118.303 183.59C118.203 183.433 117.996 183.543 118.02 183.709C118.043 183.861 118.074 184.012 118.1 184.164L118.048 184.3C117.728 185.163 117.508 186.073 118.096 186.835C118.317 187.12 118.559 187.288 118.86 187.339C119.344 188.935 119.951 190.501 120.601 192.005L120.791 192.445C121.747 194.64 122.766 196.806 124.288 198.675C125.95 200.715 128.235 202.108 129.683 204.343C130.356 205.383 130.824 206.477 131.205 207.651L131.348 208.097C131.618 208.927 131.929 209.732 132.708 210.22C132.956 210.375 133.328 210.326 133.529 210.114C135.125 208.423 133.454 205.267 132.491 203.631C131.153 201.355 129.216 199.899 127.277 198.183C125.187 196.332 123.854 193.856 122.564 191.418C121.774 189.923 121.011 188.397 120.209 186.896C121.047 186.154 121.316 184.68 121.6 183.656L121.626 183.564C122.096 181.923 122.469 180.24 122.705 178.549C122.932 176.923 123.026 175.321 122.966 173.686L122.949 173.27M119.031 178.021C119.216 177.767 118.91 177.479 118.655 177.532C117.109 177.852 115.598 178.789 114.21 179.546L114.062 179.626C112.954 180.224 111.84 180.957 111.258 182.118C110.626 183.38 110.678 184.834 110.764 186.206L110.772 186.334C110.878 187.979 110.895 189.689 111.243 191.304C111.421 192.131 112.169 192.364 112.809 192.168C113.57 194.574 115.708 196.346 117.269 198.244C119.261 200.664 118.886 203.931 118.678 206.845C118.594 208.025 120.06 208.36 120.815 207.731L122.556 206.284C122.845 206.042 123.135 205.8 123.424 205.557C123.671 205.349 123.916 205.139 124.159 204.927L124.522 204.606C124.683 204.462 125.393 203.668 125.601 203.635C126.104 203.555 127.298 204.882 127.707 205.298L127.759 205.35C128.529 206.105 129.224 206.918 129.872 207.78C129.991 207.938 130.224 207.807 130.139 207.624C129.558 206.379 128.884 205.19 128.082 204.076L127.92 203.854C127.387 203.135 126.671 201.865 125.73 201.653C124.581 201.394 123.434 202.547 122.598 203.187L122.545 203.228C122.147 203.526 121.754 203.83 121.361 204.136C121.403 201.966 121.129 199.774 120.009 197.904C119.22 196.585 118.038 195.609 117.026 194.475C115.9 193.214 115.311 191.663 114.292 190.348C114.16 190.179 113.979 190.088 113.783 190.059C113.744 189.003 113.589 187.936 113.469 186.891L113.434 186.578C113.312 185.442 113.025 184.055 113.581 182.992C114.106 181.987 115.31 181.278 116.201 180.597L116.929 180.032M169.207 166.014C169.672 166.284 170.107 166.619 170.502 167.038C171.744 168.357 172.633 169.999 173.497 171.578C173.963 172.429 174.411 173.289 174.881 174.137C175.085 174.506 175.295 174.872 175.507 175.236C175.605 175.404 175.897 175.738 176.041 175.944C175.881 176.169 175.714 176.391 175.545 176.61C175.481 176.694 171.023 181.554 169.47 183.455C167.091 186.369 164.964 189.446 163.146 192.74C161.366 195.965 160.011 199.38 158.362 202.668C157.536 204.314 156.614 205.948 155.439 207.373C155.394 207.429 155.346 207.481 155.299 207.536C154.851 206.323 153.702 205.025 153.137 204.279L153.085 204.209C151.805 202.482 150.453 200.807 149.072 199.16C147.81 197.657 146.517 196.186 145.192 194.739L144.693 194.198C143.77 193.2 142.598 191.706 141.247 190.993C141.391 190.735 141.559 190.479 141.752 190.227C143.018 188.571 144.807 187.369 146.573 186.285L147.719 185.588C152.036 182.955 156.285 180.199 160.033 176.778C162.016 174.968 163.971 173.072 165.638 170.96L166.227 170.214M162.004 164.711C164.025 164.88 166.208 164.84 168.076 165.499C166.416 167.071 164.837 168.768 163.215 170.365C163.071 169.285 162.776 168.217 162.526 167.163" fill="black"/>
<path fill-rule="evenodd" clip-rule="evenodd" d="M141.457 64.7723C127.092 64.7723 112.234 75.9404 106.969 83.0671C102.542 89.0588 100.158 116.153 100.158 134.464C100.158 138.293 98.0513 145.512 98.6662 149.175C100.919 162.599 110.736 173.856 130.165 173.856C149.594 173.856 163.524 166.132 177.965 145.392C184.972 145.392 188.368 140.003 188.417 131.497C188.466 122.992 181.654 119.897 181.654 119.897C181.654 119.897 184.083 86.3313 177.965 77.5923C171.847 68.8534 155.822 64.7723 141.457 64.7723Z" fill="#EDB48C"/>
<path fill-rule="evenodd" clip-rule="evenodd" d="M147.502 60.0262C138.432 59.1051 129.545 59.8791 120.607 61.4805C119.924 61.6046 119.537 62.054 119.393 62.5942C115.183 62.7871 110.968 63.0969 106.764 63.3278C105.238 63.4115 104.373 64.9236 105.069 66.2891C105.208 66.5603 105.352 66.8242 105.499 67.0881L105.315 67.0272C104.05 66.6202 102.684 66.4195 101.451 67.0655C99.8827 67.8877 99.2677 69.7018 99.6143 71.3714C99.7031 71.7977 99.8521 72.2063 100.022 72.6049C99.6775 72.5821 99.3309 72.5897 98.9869 72.6354C97.1552 72.879 95.7942 74.2873 95.698 76.1625C95.5564 78.9941 97.3753 81.8668 99.5181 83.894C99.2072 84.5363 99.0881 85.2925 99.2173 86.0588C99.4754 87.5737 100.588 88.4808 101.878 89.0726C101.34 90.7857 101.086 92.5766 101.236 94.4069C101.286 95.018 101.819 95.5227 102.381 95.6465C100.285 101.436 99.2237 107.651 98.4606 113.707C97.9167 118.016 97.6486 122.35 97.6159 126.692C97.6 128.652 97.6322 130.614 97.7142 132.574L97.7472 133.309C97.8484 135.429 97.8535 137.654 98.233 139.75C96.9377 141.96 96.4165 144.703 96.1964 147.179C95.9232 150.245 96.3558 153.407 97.3199 156.322C100.958 167.34 111.937 174.293 122.965 176.1C133.173 177.772 144.985 175.521 150.95 166.221C151.044 166.074 150.844 165.952 150.728 166.049C146.46 169.53 141.509 171.083 136.13 171.839C126.831 173.144 116.377 170.931 108.914 165.064C105.332 162.247 102.749 158.147 101.613 153.734C101.034 151.478 100.834 149.126 101.062 146.804C101.294 144.449 102.334 142.44 102.989 140.214C103.209 139.463 102.976 138.765 102.519 138.268C102.39 136.461 102.086 134.639 101.97 132.838C101.841 130.79 101.762 128.742 101.734 126.692C101.681 122.439 101.858 118.178 102.215 113.943C102.868 106.189 104.601 98.622 105.618 90.9331C105.994 91.2718 106.534 91.4109 107.1 91.115L107.158 91.0828L107.467 90.9054C107.485 90.9054 107.505 90.908 107.523 90.9103C109.635 91.116 111.826 90.8217 113.85 90.1896C115.968 89.5301 117.933 88.5151 119.689 87.1626C120.023 88.86 120.162 90.5753 120.164 92.3059C120.167 93.3869 121.308 93.9479 122.214 93.4861C126.228 91.4406 130.064 89.0835 133.704 86.4343C134.129 88.6191 134.554 90.8037 134.982 92.991C135.146 93.8337 136.217 94.1737 136.902 93.7728C139.629 92.1815 141.984 90.0985 143.902 87.6216C144.285 88.356 144.669 89.0902 145.055 89.8229L145.638 90.9204C146.212 91.9988 146.981 93.1917 148.238 93.5366C149.569 93.902 150.68 93.0369 151.127 91.8288C151.264 91.4535 151.39 91.0676 151.507 90.6793C152.64 93.2755 153.92 95.813 155.367 98.2338C157.538 101.865 160.144 105.1 162.742 108.419C163.531 109.427 164.882 108.465 164.991 107.486C165.054 106.909 165.107 106.331 165.153 105.755C166.667 108.819 168.247 111.855 169.968 114.802L169.721 115.771V115.771C169.011 118.633 168.421 121.515 167.78 124.392C167.573 125.32 168.065 126.647 169.147 126.805C170.438 126.994 171.66 127.656 172.984 127.2C174.426 126.704 174.711 125.453 175.393 124.267C175.528 124.031 175.686 123.814 175.856 123.608L175.9 123.664V123.664C176.006 123.804 176.259 123.652 176.196 123.492L176.122 123.307V123.307C176.707 122.684 177.407 122.165 178.051 121.606C179.581 121.347 181.302 121.63 182.356 122.254C184.757 123.675 185.86 126.603 185.883 129.295C185.91 132.447 184.937 135.989 183.292 138.684C182.568 139.869 181.577 140.94 180.267 141.465C178.966 141.988 177.557 141.826 176.234 142.318C175.358 142.645 174.82 143.62 175.348 144.502C175.384 144.564 175.424 144.619 175.462 144.678L175.069 145.202C174.798 145.565 174.516 145.953 174.253 146.357C173.58 147.134 172.872 147.883 172.186 148.646C170.919 150.054 169.689 151.501 168.442 152.929C167.265 154.277 166.021 155.543 164.738 156.789C163.526 157.969 162.013 158.961 160.9 160.22C159.818 161.448 159.524 163.592 161.305 164.303C163.276 165.091 165.02 163.244 166.347 162.012L166.403 161.96C168.834 159.716 171.03 157.151 172.774 154.327C174.501 155.507 177 155.619 178.72 154.44C179.625 153.82 180.32 152.777 180.657 151.643C180.975 151.714 181.293 151.756 181.604 151.751C181.763 151.844 181.923 151.935 182.085 152.019C183.368 152.688 184.944 152.389 185.531 150.965C186.065 149.673 185.515 148.205 185.033 146.96L184.934 146.702C184.661 145.992 184.36 145.218 183.985 144.49C185.027 143.703 185.918 142.726 186.672 141.615C189.204 137.872 190.469 132.399 189.91 127.933C189.574 125.238 188.312 122.447 186.245 120.63L186.32 120.432V120.432C186.9 118.958 187.426 117.478 187.767 115.92C188.167 114.098 188.362 112.21 188.539 110.355C188.913 106.438 188.812 102.431 188.314 98.5281C187.378 91.182 185.005 83.9704 180.793 77.8576C181.987 76.4236 182.933 74.7362 182.44 72.7952C182.214 71.9043 181.701 71.0596 180.927 70.5493C180.499 70.2679 179.991 70.2247 179.563 69.9913L179.434 69.9203C179.247 69.8104 179.39 69.822 179.502 69.3112C179.945 67.2708 179.578 65.2994 177.339 64.6219C175.232 63.985 173.238 65.3375 171.991 66.9488C168.728 64.6267 164.427 63.4115 160.645 62.3788C156.344 61.2087 151.932 60.4782 147.502 60.0262ZM182.753 128.463C182.768 126.801 181.197 125.776 179.651 126.047C178.613 126.229 177.747 126.85 176.934 127.492L176.538 127.807C175.548 128.587 174.411 129.427 173.82 130.531C172.955 132.16 174.784 134.352 176.492 133.211C177.663 132.423 178.414 131.162 179.182 129.99L179.262 129.869C179.611 129.343 179.917 128.785 180.395 128.364L180.499 128.273C180.656 128.139 180.825 128.016 181.028 127.958C181.42 127.845 182.145 128.003 182.318 128.471L182.333 128.519C182.397 128.755 182.751 128.704 182.753 128.463Z" fill="black"/>
<path fill-rule="evenodd" clip-rule="evenodd" d="M117.032 151.468C118.753 152.145 120.786 152.305 122.562 151.728C124.26 151.177 125.802 149.949 126.735 148.405C127.566 147.029 127.913 145.397 127.422 143.77C127.399 143.692 127.322 143.642 127.249 143.623C126.847 143.989 126.599 144.353 126.351 144.715C125.933 145.325 125.514 145.929 124.938 146.45C124.101 147.209 122.973 147.825 121.854 148.029C120.758 148.228 119.637 148.052 118.655 147.527C118.059 147.208 117.576 146.781 117.098 146.353C116.578 145.886 116.066 145.412 115.35 145.149C114.775 144.938 114.172 145.116 113.709 145.469C113.211 145.849 112.853 146.443 112.873 147.065C112.903 148.027 113.325 148.83 113.935 149.493C114.761 150.389 115.929 151.034 117.032 151.468ZM119.075 127.476C117.161 128.641 114.244 131.357 116.303 134.244C118.727 136.79 122.218 133.871 123.938 132.551C125.533 131.528 127.325 134.159 125.845 135.354C113.416 144.564 108.373 127.781 118.107 126.107C119.179 125.922 119.577 127.116 119.075 127.476ZM139.211 111.338C136.602 111.213 134.303 112.386 131.816 112.919C129.518 113.411 127.254 113.116 125.02 112.489C121.393 111.472 119.893 117.029 123.471 118.112C126.076 118.9 128.819 118.955 131.493 118.549C133.867 118.187 135.858 117.03 138.122 116.357C140.065 115.779 142.351 116.019 144.403 116.291L145.2 116.398C146.384 116.558 147.574 116.718 148.746 116.95C149.763 117.151 150.779 117.519 151.817 117.562C151.935 117.567 152.035 117.413 151.96 117.311C150.754 115.654 148.43 114.346 146.581 113.474L146.456 113.416C144.174 112.351 141.753 111.459 139.211 111.338ZM140.167 123.557L140.168 123.5C140.164 121.882 139.223 118.188 136.895 118.188C135.441 118.188 134.559 120.702 134.406 123.294L134.4 123.4C134.333 125.011 134.775 128.533 136.895 128.533C139.038 128.533 140.145 125.197 140.167 123.557V123.557ZM105.903 123.557L105.902 123.5C105.906 121.882 106.847 118.188 109.175 118.188C110.592 118.188 111.467 120.578 111.652 123.1L111.664 123.294C111.756 124.851 111.343 128.533 109.175 128.533C107.032 128.533 105.925 125.197 105.903 123.557V123.557ZM105.938 109.367L105.772 109.371C103.052 109.465 100.255 111.078 99.5284 113.786C99.4909 113.927 99.6641 114.022 99.7668 113.925C102.003 111.83 105.011 113.832 107.25 114.882L108.073 115.262C110.96 116.606 114.243 118.187 117.448 117.185C118.971 116.709 119.938 115.144 119.503 113.562C119.117 112.155 117.42 110.973 115.95 111.48L115.884 111.505C114.69 111.962 113.222 111.499 111.988 111.042L110.975 110.661C109.346 110.043 107.71 109.35 105.938 109.367V109.367Z" fill="black"/>
</svg>
